mtllib C:/Users/Admin/Desktop/Coding & Modding/CosmicJamMod/image/texture/jan_tex/jan_tex.mtl

v  -37 -10 -105
v  -37 -5 -105
v  -37 -5 -180
v  -37 -10 -180
v  38 -10 -180
v  38 -5 -180
v  38 -5 -105
v  38 -10 -105
v  38 -10 -105
v  38 -5 -105
v  -37 -5 -105
v  -37 -10 -105
v  13 -5 -105
v  38 -5 -105
v  38 -5 -180
v  13 -5 -180
v  -12 -5 -105
v  13 -5 -105
v  13 -5 -180
v  -12 -5 -180
v  -37 -5 -105
v  -12 -5 -105
v  -12 -5 -180
v  -37 -5 -180
vn  -2.0 0.0 0.0
vn  -1.0 0.0 0.0
vn  -2.0 0.0 0.0
vn  -1.0 0.0 0.0
vn  2.0 0.0 0.0
vn  1.0 0.0 0.0
vn  2.0 0.0 0.0
vn  1.0 0.0 0.0
vn  0.0 0.0 2.0
vn  0.0 0.0 1.0
vn  0.0 0.0 2.0
vn  0.0 0.0 1.0
vn  0.0 2.0 0.0
vn  0.0 1.0 0.0
vn  0.0 2.0 0.0
vn  0.0 1.0 0.0
vn  0.0 2.0 0.0
vn  0.0 1.0 0.0
vn  0.0 2.0 0.0
vn  0.0 1.0 0.0
vn  0.0 2.0 0.0
vn  0.0 1.0 0.0
vn  0.0 2.0 0.0
vn  0.0 1.0 0.0
vt  2.1762695 0.20605469
vt  2.2353516 0.44140625
vt  0.47070312 0.8823242
vt  0.4116211 0.64697266
vt  0.4116211 0.64697266
vt  0.47070312 0.8823242
vt  2.2353516 0.44140625
vt  2.1762695 0.20605469
vt  1.0 0.5
vt  1.5 0.5
vt  1.5 -3.25
vt  1.0 -3.25
vt  0.5 -1.0
vt  1.0 -1.0
vt  1.0 0.5
vt  0.5 0.5
vt  2.230957 0.6538086
vt  1.8461914 1.230957
vt  0.115234375 0.07714844
vt  0.5 -0.5
vt  1.3793945 -0.051757812
vt  1.5517578 0.37939453
vt  0.25878906 0.8964844
vt  0.08642578 0.46533203

o o52
usemtl m_jan_kinoitatif
f  1/1/1 2/2/2 3/3/3
f  1/1/1 3/3/3 4/4/4
f  5/5/5 6/6/6 7/7/7
f  5/5/5 7/7/7 8/8/8
f  9/9/9 10/10/10 11/11/11
f  9/9/9 11/11/11 12/12/12
f  13/13/13 14/14/14 15/15/15
f  13/13/13 15/15/15 16/16/16
f  17/17/17 18/18/18 19/19/19
f  17/17/17 19/19/19 20/20/20
f  21/21/21 22/22/22 23/23/23
f  21/21/21 23/23/23 24/24/24

v  38 -10 -105
v  38 -20 -105
v  38 -20 -120
v  38 -10 -120
v  38 -20 -165
v  38 -120 -165
v  38 -120 -180
v  38 -20 -180
v  38 -10 -165
v  38 -20 -165
v  38 -20 -180
v  38 -10 -180
v  23 -10 -165
v  23 -20 -165
v  38 -20 -165
v  38 -10 -165
v  23 -20 -165
v  23 -120 -165
v  38 -120 -165
v  38 -20 -165
v  -37 -10 -165
v  -37 -20 -165
v  -23 -20 -165
v  -23 -10 -165
v  -37 -20 -165
v  -37 -120 -165
v  -23 -120 -165
v  -23 -20 -165
v  38 -20 -105
v  38 -120 -105
v  38 -120 -120
v  38 -20 -120
v  -37 -20 -180
v  -37 -120 -180
v  -37 -120 -165
v  -37 -20 -165
v  -37 -10 -180
v  -37 -20 -180
v  -37 -20 -165
v  -37 -10 -165
v  -37 -20 -120
v  -37 -120 -120
v  -37 -120 -105
v  -37 -20 -105
v  -37 -10 -120
v  -37 -20 -120
v  -37 -20 -105
v  -37 -10 -105
v  23 -10 -105
v  23 -20 -105
v  38 -20 -105
v  38 -10 -105
v  23 -20 -105
v  23 -120 -105
v  38 -120 -105
v  38 -20 -105
v  -37 -10 -105
v  -37 -20 -105
v  -23 -20 -105
v  -23 -10 -105
v  -37 -20 -105
v  -37 -120 -105
v  -23 -120 -105
v  -23 -20 -105
vn  2.0 0.0 0.0
vn  1.0 0.0 0.0
vn  2.0 0.0 0.0
vn  1.0 0.0 0.0
vn  2.0 0.0 0.0
vn  1.0 0.0 0.0
vn  2.0 0.0 0.0
vn  1.0 0.0 0.0
vn  2.0 0.0 0.0
vn  1.0 0.0 0.0
vn  2.0 0.0 0.0
vn  1.0 0.0 0.0
vn  0.0 0.0 2.0
vn  0.0 0.0 1.0
vn  0.0 0.0 2.0
vn  0.0 0.0 1.0
vn  0.0 0.0 2.0
vn  0.0 0.0 1.0
vn  0.0 0.0 2.0
vn  0.0 0.0 1.0
vn  0.0 0.0 2.0
vn  0.0 0.0 1.0
vn  0.0 0.0 2.0
vn  0.0 0.0 1.0
vn  0.0 0.0 2.0
vn  0.0 0.0 1.0
vn  0.0 0.0 2.0
vn  0.0 0.0 1.0
vn  2.0 0.0 0.0
vn  1.0 0.0 0.0
vn  2.0 0.0 0.0
vn  1.0 0.0 0.0
vn  -2.0 0.0 0.0
vn  -1.0 0.0 0.0
vn  -2.0 0.0 0.0
vn  -1.0 0.0 0.0
vn  -2.0 0.0 0.0
vn  -1.0 0.0 0.0
vn  -2.0 0.0 0.0
vn  -1.0 0.0 0.0
vn  -2.0 0.0 0.0
vn  -1.0 0.0 0.0
vn  -2.0 0.0 0.0
vn  -1.0 0.0 0.0
vn  -2.0 0.0 0.0
vn  -1.0 0.0 0.0
vn  -2.0 0.0 0.0
vn  -1.0 0.0 0.0
vn  0.0 0.0 2.0
vn  0.0 0.0 1.0
vn  0.0 0.0 2.0
vn  0.0 0.0 1.0
vn  0.0 0.0 2.0
vn  0.0 0.0 1.0
vn  0.0 0.0 2.0
vn  0.0 0.0 1.0
vn  0.0 0.0 2.0
vn  0.0 0.0 1.0
vn  0.0 0.0 2.0
vn  0.0 0.0 1.0
vn  0.0 0.0 2.0
vn  0.0 0.0 1.0
vn  0.0 0.0 2.0
vn  0.0 0.0 1.0
vt  0.45947266 -0.25683594
vt  0.45703125 -0.2421875
vt  0.21386719 -0.28271484
vt  0.2163086 -0.29736328
vt  0.375 -0.47705078
vt  0.375 -0.25
vt  0.0 -0.25
vt  0.0 -0.47705078
vt  0.375 -0.5
vt  0.375 -0.47705078
vt  0.0 -0.47705078
vt  0.0 -0.5
vt  0.3623047 0.34472656
vt  0.36816406 0.32910156
vt  0.10986328 0.22558594
vt  0.103515625 0.24121094
vt  0.36816406 0.32910156
vt  0.43115234 0.17236328
vt  0.17236328 0.068847656
vt  0.10986328 0.22558594
vt  2.519043 -0.096191406
vt  2.515625 -0.07861328
vt  2.2270508 -0.13623047
vt  2.230957 -0.1538086
vt  2.515625 -0.07861328
vt  2.480957 0.096191406
vt  2.1923828 0.03857422
vt  2.2270508 -0.13623047
vt  0.45703125 -0.2421875
vt  0.4326172 -0.09472656
vt  0.18896484 -0.1352539
vt  0.21386719 -0.28271484
vt  0.0 -0.47705078
vt  0.0 -0.25
vt  0.375 -0.25
vt  0.375 -0.47705078
vt  0.0 -0.5
vt  0.0 -0.47705078
vt  0.375 -0.47705078
vt  0.375 -0.5
vt  0.21386719 -0.28271484
vt  0.18896484 -0.1352539
vt  0.4326172 -0.09472656
vt  0.45703125 -0.2421875
vt  0.2163086 -0.29736328
vt  0.21386719 -0.28271484
vt  0.45703125 -0.2421875
vt  0.45947266 -0.25683594
vt  0.3623047 0.34472656
vt  0.36816406 0.32910156
vt  0.10986328 0.22558594
vt  0.103515625 0.24121094
vt  0.36816406 0.32910156
vt  0.43115234 0.17236328
vt  0.17236328 0.068847656
vt  0.10986328 0.22558594
vt  2.519043 -0.096191406
vt  2.515625 -0.07861328
vt  2.2270508 -0.13623047
vt  2.230957 -0.1538086
vt  2.515625 -0.07861328
vt  2.480957 0.096191406
vt  2.1923828 0.03857422
vt  2.2270508 -0.13623047

o o51
usemtl m_jan_kinoitatif
f  25/25/25 26/26/26 27/27/27
f  25/25/25 27/27/27 28/28/28
f  29/29/29 30/30/30 31/31/31
f  29/29/29 31/31/31 32/32/32
f  33/33/33 34/34/34 35/35/35
f  33/33/33 35/35/35 36/36/36
f  37/37/37 38/38/38 39/39/39
f  37/37/37 39/39/39 40/40/40
f  41/41/41 42/42/42 43/43/43
f  41/41/41 43/43/43 44/44/44
f  45/45/45 46/46/46 47/47/47
f  45/45/45 47/47/47 48/48/48
f  49/49/49 50/50/50 51/51/51
f  49/49/49 51/51/51 52/52/52
f  53/53/53 54/54/54 55/55/55
f  53/53/53 55/55/55 56/56/56
f  57/57/57 58/58/58 59/59/59
f  57/57/57 59/59/59 60/60/60
f  61/61/61 62/62/62 63/63/63
f  61/61/61 63/63/63 64/64/64
f  65/65/65 66/66/66 67/67/67
f  65/65/65 67/67/67 68/68/68
f  69/69/69 70/70/70 71/71/71
f  69/69/69 71/71/71 72/72/72
f  73/73/73 74/74/74 75/75/75
f  73/73/73 75/75/75 76/76/76
f  77/77/77 78/78/78 79/79/79
f  77/77/77 79/79/79 80/80/80
f  81/81/81 82/82/82 83/83/83
f  81/81/81 83/83/83 84/84/84
f  85/85/85 86/86/86 87/87/87
f  85/85/85 87/87/87 88/88/88

v  -37 100 -180
v  38 100 -180
v  38 0 -180
v  -37 0 -180
vn  0.0 0.0 -2.0
vn  0.0 0.0 -1.0
vn  0.0 0.0 -2.0
vn  0.0 0.0 -1.0

o o214
f  89//89 90//90 91//91
f  89//89 91//91 92//92

v  -37 -20 -180
v  38 -20 -180
v  38 -20 -105
v  -37 -20 -105
v  38 100 -180
v  38 100 -105
v  -37 100 -105
v  -37 100 -180
vn  -1.0 -2.0 0.0
vn  2.0 -1.0 0.0
vn  1.0 -2.0 2.0
vn  -2.0 -1.0 1.0
vn  1.0 0.0 0.0
vn  2.0 0.0 1.0
vn  -1.0 0.0 2.0
vn  -2.0 0.0 0.0

o o71
f  93//93 94//94 95//95
f  93//93 95//95 96//96
f  94//94 97//97 98//98
f  94//94 98//98 95//95
f  96//96 99//99 100//100
f  96//96 100//100 93//93
f  95//95 98//98 99//99
f  95//95 99//99 96//96

v  38 -20 -120
v  38 -120 -120
v  23 -120 -120
v  23 -20 -120
v  23 -120 -105
v  23 -20 -105
v  38 -120 -105
v  38 -20 -105
v  23 -20 -180
v  23 -120 -180
v  23 -120 -165
v  23 -20 -165
v  38 -120 -165
v  38 -20 -165
v  38 -120 -180
v  38 -20 -180
v  -22 -20 -165
v  -22 -120 -165
v  -22 -120 -180
v  -22 -20 -180
v  -38 -20 -165
v  -38 -120 -165
v  -37 -20 -180
v  -37 -120 -180
v  -37 -5 -105
v  38 -5 -105
v  38 -5 -180
v  -37 -5 -180
v  -37 -20 -120
v  -37 -120 -120
v  -37 -120 -105
v  -37 -20 -105
v  -23 -20 -120
v  -23 -120 -120
v  -22 -120 -105
v  -22 -20 -105
vn  1.0 0.0 -2.0
vn  2.0 0.0 -1.0
vn  -1.0 0.0 -2.0
vn  -2.0 0.0 -1.0
vn  -2.0 0.0 1.0
vn  -1.0 0.0 2.0
vn  1.0 0.0 2.0
vn  2.0 0.0 1.0
vn  -2.0 0.0 0.0
vn  -1.0 0.0 0.0
vn  -2.0 0.0 1.0
vn  -1.0 0.0 2.0
vn  1.0 0.0 2.0
vn  2.0 0.0 1.0
vn  2.0 0.0 0.0
vn  1.0 0.0 0.0
vn  2.0 0.0 1.0
vn  1.0 0.0 2.0
vn  2.0 0.0 0.0
vn  1.0 0.0 0.0
vn  -0.99778515 0.0 1.933481
vn  -1.9955703 0.0 0.86696196
vn  -1.9955703 0.0 -0.13303801
vn  -0.99778515 0.0 -0.06651901
vn  0.0 2.0 0.0
vn  0.0 1.0 0.0
vn  0.0 2.0 0.0
vn  0.0 1.0 0.0
vn  -2.0 0.0 -1.0
vn  -1.0 0.0 -2.0
vn  -2.0 0.0 1.0
vn  -1.0 0.0 2.0
vn  0.99778515 0.0 -2.066519
vn  1.9955703 0.0 -1.133038
vn  0.99778515 0.0 1.933481
vn  1.9955703 0.0 0.86696196

o o154
f  101//101 102//102 103//103
f  101//101 103//103 104//104
f  104//104 103//103 105//105
f  104//104 105//105 106//106
f  106//106 105//105 107//107
f  106//106 107//107 108//108
f  109//109 110//110 111//111
f  109//109 111//111 112//112
f  112//112 111//111 113//113
f  112//112 113//113 114//114
f  114//114 113//113 115//115
f  114//114 115//115 116//116
f  117//117 118//118 119//119
f  117//117 119//119 120//120
f  121//121 122//122 118//118
f  121//121 118//118 117//117
f  123//123 124//124 122//122
f  123//123 122//122 121//121
f  108//108 107//107 102//102
f  108//108 102//102 101//101
f  125//125 126//126 127//127
f  125//125 127//127 128//128
f  129//129 130//130 131//131
f  129//129 131//131 132//132
f  133//133 134//134 130//130
f  133//133 130//130 129//129
f  132//132 131//131 135//135
f  132//132 135//135 136//136
f  136//136 135//135 134//134
f  136//136 134//134 133//133

